# xmcd
#
# Track frame offsets:
#	150
#	19910
#	41178
#	64185
#	91710
#	115646
#	138587
#	156336
#	175825
#	195204
#	217689
#
# Disc length: 3163 seconds
#
# Revision: 0
# Processed by: cddbd v1.5.2PL0 Copyright (c) Steve Scherf et al.
# Submitted via: dBpowerAMP V4.0
#
DISCID=8b0c590b
DTITLE=Tab Benoit - Power of the Pontchartrain
DYEAR=2007
DGENRE=Blues
TTITLE0=Don't Make No Sence
TTITLE1=Good To Ya , Baby
TTITLE2=Shelter Me
TTITLE3=Power of the Pontchartrain
TTITLE4=For What It's Worth
TTITLE5=Midnight and Lonesome
TTITLE6=Sac-Au-Lait Fishing
TTITLE7=Somebody's Got to Go
TTITLE8=I'm Guilty of Lovin' You
TTITLE9=Addicted
TTITLE10=One Foot in the Bayou
EXTD=
EXTT0=
EXTT1=
EXTT2=
EXTT3=
EXTT4=
EXTT5=
EXTT6=
EXTT7=
EXTT8=
EXTT9=
EXTT10=
PLAYORDER=
